{
	"asset":{
		"generator":"Khronos glTF Blender I/O v4.1.63",
		"version":"2.0"
	},
	"scene":0,
	"scenes":[
		{
			"name":"Scene",
			"nodes":[
				0,
				1,
				2,
				3,
				4,
				5
			]
		}
	],
	"nodes":[
		{
			"mesh":0,
			"name":"water_pump1",
			"translation":[
				7.75,
				220.6005096435547,
				-36.99999237060547
			]
		},
		{
			"mesh":1,
			"name":"water_pump4",
			"translation":[
				7.75,
				220.6005096435547,
				-36.99999237060547
			]
		},
		{
			"mesh":2,
			"name":"water_pump2",
			"translation":[
				7.75,
				220.6005096435547,
				-36.99999237060547
			]
		},
		{
			"mesh":3,
			"name":"water_pump3",
			"translation":[
				7.75,
				220.6005096435547,
				-36.99999237060547
			]
		},
		{
			"mesh":4,
			"name":"power_generator1",
			"translation":[
				7.75,
				220.6005096435547,
				-36.99999237060547
			]
		},
		{
			"mesh":5,
			"name":"power_generator2",
			"translation":[
				7.75,
				220.6005096435547,
				-36.99999237060547
			]
		}
	],
	"materials":[
		{
			"name":"water_pump",
			"pbrMetallicRoughness":{
				"baseColorTexture":{
					"index":0
				},
				"metallicFactor":0,
				"roughnessFactor":0.5
			}
		},
		{
			"name":"power_generator",
			"pbrMetallicRoughness":{
				"baseColorTexture":{
					"index":1
				},
				"metallicFactor":0,
				"roughnessFactor":0.5
			}
		}
	],
	"meshes":[
		{
			"name":"Plane.018",
			"primitives":[
				{
					"attributes":{
						"POSITION":0,
						"NORMAL":1,
						"TEXCOORD_0":2
					},
					"indices":3,
					"material":0
				}
			]
		},
		{
			"name":"Plane.019",
			"primitives":[
				{
					"attributes":{
						"POSITION":4,
						"NORMAL":5,
						"TEXCOORD_0":6
					},
					"indices":7,
					"material":0
				}
			]
		},
		{
			"name":"Plane.020",
			"primitives":[
				{
					"attributes":{
						"POSITION":8,
						"NORMAL":9,
						"TEXCOORD_0":10
					},
					"indices":11,
					"material":0
				}
			]
		},
		{
			"name":"Plane.021",
			"primitives":[
				{
					"attributes":{
						"POSITION":12,
						"NORMAL":13,
						"TEXCOORD_0":14
					},
					"indices":15,
					"material":0
				}
			]
		},
		{
			"name":"Plane.022",
			"primitives":[
				{
					"attributes":{
						"POSITION":16,
						"NORMAL":17,
						"TEXCOORD_0":18
					},
					"indices":19,
					"material":1
				}
			]
		},
		{
			"name":"Plane.023",
			"primitives":[
				{
					"attributes":{
						"POSITION":20,
						"NORMAL":21,
						"TEXCOORD_0":22
					},
					"indices":23,
					"material":1
				}
			]
		}
	],
	"textures":[
		{
			"sampler":0,
			"source":0
		},
		{
			"sampler":0,
			"source":1
		}
	],
	"images":[
		{
			"mimeType":"image/png",
			"name":"water_pump",
			"uri":"water_pump.png"
		},
		{
			"mimeType":"image/png",
			"name":"power_generator",
			"uri":"power_generator.png"
		}
	],
	"accessors":[
		{
			"bufferView":0,
			"componentType":5126,
			"count":72,
			"max":[
				10.249999046325684,
				5.599517822265625,
				14.999996185302734
			],
			"min":[
				2.2499990463256836,
				-0.400482177734375,
				2.9999961853027344
			],
			"type":"VEC3"
		},
		{
			"bufferView":1,
			"componentType":5126,
			"count":72,
			"type":"VEC3"
		},
		{
			"bufferView":2,
			"componentType":5126,
			"count":72,
			"type":"VEC2"
		},
		{
			"bufferView":3,
			"componentType":5123,
			"count":120,
			"type":"SCALAR"
		},
		{
			"bufferView":4,
			"componentType":5126,
			"count":1544,
			"max":[
				2.249999523162842,
				3.5994977951049805,
				-1.0000026226043701
			],
			"min":[
				-14.749998092651367,
				-10.600503921508789,
				-5.000004768371582
			],
			"type":"VEC3"
		},
		{
			"bufferView":5,
			"componentType":5126,
			"count":1544,
			"type":"VEC3"
		},
		{
			"bufferView":6,
			"componentType":5126,
			"count":1544,
			"type":"VEC2"
		},
		{
			"bufferView":7,
			"componentType":5123,
			"count":1680,
			"type":"SCALAR"
		},
		{
			"bufferView":8,
			"componentType":5126,
			"count":3336,
			"max":[
				12.249999046325684,
				7.401526927947998,
				10.999994277954102
			],
			"min":[
				-1.7500009536743164,
				-0.40051984786987305,
				6.999994277954102
			],
			"type":"VEC3"
		},
		{
			"bufferView":9,
			"componentType":5126,
			"count":3336,
			"type":"VEC3"
		},
		{
			"bufferView":10,
			"componentType":5126,
			"count":3336,
			"type":"VEC2"
		},
		{
			"bufferView":11,
			"componentType":5123,
			"count":3528,
			"type":"SCALAR"
		},
		{
			"bufferView":12,
			"componentType":5126,
			"count":128,
			"max":[
				2.2499990463256836,
				3.5994873046875,
				6.999996185302734
			],
			"min":[
				-1.7500009536743164,
				-0.4005126953125,
				-1.0000038146972656
			],
			"type":"VEC3"
		},
		{
			"bufferView":13,
			"componentType":5126,
			"count":128,
			"type":"VEC3"
		},
		{
			"bufferView":14,
			"componentType":5126,
			"count":128,
			"type":"VEC2"
		},
		{
			"bufferView":15,
			"componentType":5123,
			"count":192,
			"type":"SCALAR"
		},
		{
			"bufferView":16,
			"componentType":5126,
			"count":110,
			"max":[
				13.249996185302734,
				6.5994720458984375,
				-4.999999046325684
			],
			"min":[
				-0.750002384185791,
				-0.4005281925201416,
				-13.000000953674316
			],
			"type":"VEC3"
		},
		{
			"bufferView":17,
			"componentType":5126,
			"count":110,
			"type":"VEC3"
		},
		{
			"bufferView":18,
			"componentType":5126,
			"count":110,
			"type":"VEC2"
		},
		{
			"bufferView":19,
			"componentType":5123,
			"count":222,
			"type":"SCALAR"
		},
		{
			"bufferView":20,
			"componentType":5126,
			"count":64,
			"max":[
				10.249998092651367,
				3.599475622177124,
				2.9999916553497314
			],
			"min":[
				2.249999523162842,
				-0.400531530380249,
				-5.000006675720215
			],
			"type":"VEC3"
		},
		{
			"bufferView":21,
			"componentType":5126,
			"count":64,
			"type":"VEC3"
		},
		{
			"bufferView":22,
			"componentType":5126,
			"count":64,
			"type":"VEC2"
		},
		{
			"bufferView":23,
			"componentType":5123,
			"count":96,
			"type":"SCALAR"
		}
	],
	"bufferViews":[
		{
			"buffer":0,
			"byteLength":864,
			"byteOffset":0,
			"target":34962
		},
		{
			"buffer":0,
			"byteLength":864,
			"byteOffset":864,
			"target":34962
		},
		{
			"buffer":0,
			"byteLength":576,
			"byteOffset":1728,
			"target":34962
		},
		{
			"buffer":0,
			"byteLength":240,
			"byteOffset":2304,
			"target":34963
		},
		{
			"buffer":0,
			"byteLength":18528,
			"byteOffset":2544,
			"target":34962
		},
		{
			"buffer":0,
			"byteLength":18528,
			"byteOffset":21072,
			"target":34962
		},
		{
			"buffer":0,
			"byteLength":12352,
			"byteOffset":39600,
			"target":34962
		},
		{
			"buffer":0,
			"byteLength":3360,
			"byteOffset":51952,
			"target":34963
		},
		{
			"buffer":0,
			"byteLength":40032,
			"byteOffset":55312,
			"target":34962
		},
		{
			"buffer":0,
			"byteLength":40032,
			"byteOffset":95344,
			"target":34962
		},
		{
			"buffer":0,
			"byteLength":26688,
			"byteOffset":135376,
			"target":34962
		},
		{
			"buffer":0,
			"byteLength":7056,
			"byteOffset":162064,
			"target":34963
		},
		{
			"buffer":0,
			"byteLength":1536,
			"byteOffset":169120,
			"target":34962
		},
		{
			"buffer":0,
			"byteLength":1536,
			"byteOffset":170656,
			"target":34962
		},
		{
			"buffer":0,
			"byteLength":1024,
			"byteOffset":172192,
			"target":34962
		},
		{
			"buffer":0,
			"byteLength":384,
			"byteOffset":173216,
			"target":34963
		},
		{
			"buffer":0,
			"byteLength":1320,
			"byteOffset":173600,
			"target":34962
		},
		{
			"buffer":0,
			"byteLength":1320,
			"byteOffset":174920,
			"target":34962
		},
		{
			"buffer":0,
			"byteLength":880,
			"byteOffset":176240,
			"target":34962
		},
		{
			"buffer":0,
			"byteLength":444,
			"byteOffset":177120,
			"target":34963
		},
		{
			"buffer":0,
			"byteLength":768,
			"byteOffset":177564,
			"target":34962
		},
		{
			"buffer":0,
			"byteLength":768,
			"byteOffset":178332,
			"target":34962
		},
		{
			"buffer":0,
			"byteLength":512,
			"byteOffset":179100,
			"target":34962
		},
		{
			"buffer":0,
			"byteLength":192,
			"byteOffset":179612,
			"target":34963
		}
	],
	"samplers":[
		{
			"magFilter":9729,
			"minFilter":9987
		}
	],
	"buffers":[
		{
			"byteLength":179804,
			"uri":"utilities.bin"
		}
	]
}
