{
	"asset":{
		"generator":"Khronos glTF Blender I/O v4.3.47",
		"version":"2.0"
	},
	"scene":0,
	"scenes":[
		{
			"name":"Scene",
			"nodes":[
				0
			]
		}
	],
	"nodes":[
		{
			"mesh":0,
			"name":"Grid"
		}
	],
	"meshes":[
		{
			"name":"Grid.001",
			"primitives":[
				{
					"attributes":{
						"POSITION":0,
						"NORMAL":1
					},
					"indices":2
				}
			]
		}
	],
	"accessors":[
		{
			"bufferView":0,
			"componentType":5126,
			"count":131001,
			"max":[
				500,
				0,
				500
			],
			"min":[
				-500,
				0,
				-500
			],
			"type":"VEC3"
		},
		{
			"bufferView":1,
			"componentType":5126,
			"count":131001,
			"type":"VEC3"
		},
		{
			"bufferView":2,
			"componentType":5125,
			"count":783600,
			"type":"SCALAR"
		}
	],
	"bufferViews":[
		{
			"buffer":0,
			"byteLength":1572012,
			"byteOffset":0,
			"target":34962
		},
		{
			"buffer":0,
			"byteLength":1572012,
			"byteOffset":1572012,
			"target":34962
		},
		{
			"buffer":0,
			"byteLength":3134400,
			"byteOffset":3144024,
			"target":34963
		}
	],
	"buffers":[
		{
			"byteLength":6278424,
			"uri":"terrain.bin"
		}
	]
}
