{
	"asset":{
		"generator":"Khronos glTF Blender I/O v4.1.63",
		"version":"2.0"
	},
	"scene":0,
	"scenes":[
		{
			"name":"Scene",
			"nodes":[
				0
			]
		}
	],
	"nodes":[
		{
			"mesh":0,
			"name":"item_factory",
			"translation":[
				46.000091552734375,
				226.3125762939453,
				-33.75
			]
		}
	],
	"materials":[
		{
			"name":"item factory",
			"pbrMetallicRoughness":{
				"baseColorTexture":{
					"index":0
				},
				"metallicFactor":0,
				"roughnessFactor":0.5
			}
		}
	],
	"meshes":[
		{
			"name":"Plane.016",
			"primitives":[
				{
					"attributes":{
						"POSITION":0,
						"NORMAL":1,
						"TEXCOORD_0":2
					},
					"indices":3,
					"material":0
				}
			]
		}
	],
	"textures":[
		{
			"sampler":0,
			"source":0
		}
	],
	"images":[
		{
			"mimeType":"image/png",
			"name":"item_factory",
			"uri":"item_factory/item_factory.png"
		}
	],
	"accessors":[
		{
			"bufferView":0,
			"componentType":5126,
			"count":553,
			"max":[
				3.5000007152557373,
				6.162567615509033,
				15.750001907348633
			],
			"min":[
				-3.5000007152557373,
				-6.162567615509033,
				-15.750001907348633
			],
			"type":"VEC3"
		},
		{
			"bufferView":1,
			"componentType":5126,
			"count":553,
			"type":"VEC3"
		},
		{
			"bufferView":2,
			"componentType":5126,
			"count":553,
			"type":"VEC2"
		},
		{
			"bufferView":3,
			"componentType":5123,
			"count":1008,
			"type":"SCALAR"
		}
	],
	"bufferViews":[
		{
			"buffer":0,
			"byteLength":6636,
			"byteOffset":0,
			"target":34962
		},
		{
			"buffer":0,
			"byteLength":6636,
			"byteOffset":6636,
			"target":34962
		},
		{
			"buffer":0,
			"byteLength":4424,
			"byteOffset":13272,
			"target":34962
		},
		{
			"buffer":0,
			"byteLength":2016,
			"byteOffset":17696,
			"target":34963
		}
	],
	"samplers":[
		{
			"magFilter":9729,
			"minFilter":9987
		}
	],
	"buffers":[
		{
			"byteLength":19712,
			"uri":"item_factory.bin"
		}
	]
}
