{
	"asset":{
		"generator":"Khronos glTF Blender I/O v4.3.47",
		"version":"2.0"
	},
	"scene":0,
	"scenes":[
		{
			"name":"Scene",
			"nodes":[
				0
			]
		}
	],
	"nodes":[
		{
			"mesh":0,
			"name":"Grid"
		}
	],
	"meshes":[
		{
			"name":"Grid.001",
			"primitives":[
				{
					"attributes":{
						"POSITION":0,
						"NORMAL":1
					},
					"indices":2
				}
			]
		}
	],
	"accessors":[
		{
			"bufferView":0,
			"componentType":5126,
			"count":40401,
			"max":[
				62.5,
				0,
				62.5
			],
			"min":[
				-62.5,
				0,
				-62.5
			],
			"type":"VEC3"
		},
		{
			"bufferView":1,
			"componentType":5126,
			"count":40401,
			"type":"VEC3"
		},
		{
			"bufferView":2,
			"componentType":5123,
			"count":240000,
			"type":"SCALAR"
		}
	],
	"bufferViews":[
		{
			"buffer":0,
			"byteLength":484812,
			"byteOffset":0,
			"target":34962
		},
		{
			"buffer":0,
			"byteLength":484812,
			"byteOffset":484812,
			"target":34962
		},
		{
			"buffer":0,
			"byteLength":480000,
			"byteOffset":969624,
			"target":34963
		}
	],
	"buffers":[
		{
			"byteLength":1449624,
			"uri":"shell.bin"
		}
	]
}
