{
	"asset":{
		"generator":"Khronos glTF Blender I/O v4.3.47",
		"version":"2.0"
	},
	"scene":0,
	"scenes":[
		{
			"name":"Scene",
			"nodes":[
				0
			]
		}
	],
	"nodes":[
		{
			"mesh":0,
			"name":"house",
			"translation":[
				-168.31674194335938,
				4,
				254.9499969482422
			]
		}
	],
	"materials":[
		{
			"name":"Material.001",
			"pbrMetallicRoughness":{
				"baseColorTexture":{
					"index":0
				},
				"metallicFactor":0,
				"roughnessFactor":0.5
			}
		}
	],
	"meshes":[
		{
			"name":"Plane.001",
			"primitives":[
				{
					"attributes":{
						"POSITION":0,
						"NORMAL":1,
						"TEXCOORD_0":2
					},
					"indices":3,
					"material":0
				}
			]
		}
	],
	"textures":[
		{
			"sampler":0,
			"source":0
		}
	],
	"images":[
		{
			"mimeType":"image/png",
			"name":"house",
			"uri":"house.png"
		}
	],
	"accessors":[
		{
			"bufferView":0,
			"componentType":5126,
			"count":597,
			"max":[
				7.825738906860352,
				0,
				10.300003051757812
			],
			"min":[
				-8.425745010375977,
				-4,
				-10.300491333007812
			],
			"type":"VEC3"
		},
		{
			"bufferView":1,
			"componentType":5126,
			"count":597,
			"type":"VEC3"
		},
		{
			"bufferView":2,
			"componentType":5126,
			"count":597,
			"type":"VEC2"
		},
		{
			"bufferView":3,
			"componentType":5123,
			"count":969,
			"type":"SCALAR"
		}
	],
	"bufferViews":[
		{
			"buffer":0,
			"byteLength":7164,
			"byteOffset":0,
			"target":34962
		},
		{
			"buffer":0,
			"byteLength":7164,
			"byteOffset":7164,
			"target":34962
		},
		{
			"buffer":0,
			"byteLength":4776,
			"byteOffset":14328,
			"target":34962
		},
		{
			"buffer":0,
			"byteLength":1938,
			"byteOffset":19104,
			"target":34963
		}
	],
	"samplers":[
		{
			"magFilter":9729,
			"minFilter":9987
		}
	],
	"buffers":[
		{
			"byteLength":21044,
			"uri":"house.bin"
		}
	]
}
