{
	"asset":{
		"generator":"Khronos glTF Blender I/O v4.1.63",
		"version":"2.0"
	},
	"scene":0,
	"scenes":[
		{
			"name":"Scene",
			"nodes":[
				0,
				1,
				2,
				3,
				4,
				5,
				6
			]
		}
	],
	"nodes":[
		{
			"mesh":0,
			"name":"floor2",
			"translation":[
				0,
				222.5,
				0
			]
		},
		{
			"mesh":1,
			"name":"floor3",
			"translation":[
				0,
				222.5,
				0
			]
		},
		{
			"mesh":2,
			"name":"floor4",
			"translation":[
				0,
				222.5,
				0
			]
		},
		{
			"mesh":3,
			"name":"fence",
			"translation":[
				0,
				222.5,
				0
			]
		},
		{
			"mesh":4,
			"name":"floor6",
			"translation":[
				0,
				222.5,
				0
			]
		},
		{
			"mesh":5,
			"name":"floor5",
			"translation":[
				0,
				222.5,
				0
			]
		},
		{
			"mesh":6,
			"name":"floor1",
			"translation":[
				0,
				222.5,
				0
			]
		}
	],
	"materials":[
		{
			"name":"grass_field2",
			"pbrMetallicRoughness":{
				"baseColorTexture":{
					"index":0
				},
				"metallicFactor":0,
				"roughnessFactor":0.5
			}
		},
		{
			"name":"item factory",
			"pbrMetallicRoughness":{
				"baseColorTexture":{
					"index":1
				},
				"metallicFactor":0,
				"roughnessFactor":0.5
			}
		},
		{
			"name":"upgrade smith",
			"pbrMetallicRoughness":{
				"baseColorTexture":{
					"index":2
				},
				"metallicFactor":0,
				"roughnessFactor":0.5
			}
		},
		{
			"alphaMode":"BLEND",
			"name":"vedal's_house",
			"pbrMetallicRoughness":{
				"baseColorTexture":{
					"index":3
				},
				"metallicFactor":0,
				"roughnessFactor":0.5
			}
		},
		{
			"name":"water_pump",
			"pbrMetallicRoughness":{
				"baseColorTexture":{
					"index":4
				},
				"metallicFactor":0,
				"roughnessFactor":0.5
			}
		},
		{
			"name":"power_generator",
			"pbrMetallicRoughness":{
				"baseColorTexture":{
					"index":5
				},
				"metallicFactor":0,
				"roughnessFactor":0.5
			}
		}
	],
	"meshes":[
		{
			"name":"Plane.014",
			"primitives":[
				{
					"attributes":{
						"POSITION":0,
						"NORMAL":1,
						"TEXCOORD_0":2
					},
					"indices":3,
					"material":0
				}
			]
		},
		{
			"name":"Plane.005",
			"primitives":[
				{
					"attributes":{
						"POSITION":4,
						"NORMAL":5,
						"TEXCOORD_0":6
					},
					"indices":7,
					"material":0
				}
			]
		},
		{
			"name":"Plane.004",
			"primitives":[
				{
					"attributes":{
						"POSITION":8,
						"NORMAL":9,
						"TEXCOORD_0":10
					},
					"indices":11,
					"material":0
				}
			]
		},
		{
			"name":"Plane.039",
			"primitives":[
				{
					"attributes":{
						"POSITION":12,
						"NORMAL":13,
						"TEXCOORD_0":14
					},
					"indices":15,
					"material":0
				}
			]
		},
		{
			"name":"Plane.008",
			"primitives":[
				{
					"attributes":{
						"POSITION":16,
						"NORMAL":17,
						"TEXCOORD_0":18
					},
					"indices":19,
					"material":1
				},
				{
					"attributes":{
						"POSITION":20,
						"NORMAL":21,
						"TEXCOORD_0":22
					},
					"indices":23,
					"material":2
				}
			]
		},
		{
			"name":"Plane.003",
			"primitives":[
				{
					"attributes":{
						"POSITION":24,
						"NORMAL":25,
						"TEXCOORD_0":26
					},
					"indices":27,
					"material":3
				}
			]
		},
		{
			"name":"Plane.015",
			"primitives":[
				{
					"attributes":{
						"POSITION":28,
						"NORMAL":29,
						"TEXCOORD_0":30
					},
					"indices":31,
					"material":4
				},
				{
					"attributes":{
						"POSITION":32,
						"NORMAL":33,
						"TEXCOORD_0":34
					},
					"indices":35,
					"material":5
				}
			]
		}
	],
	"textures":[
		{
			"sampler":0,
			"source":0
		},
		{
			"sampler":0,
			"source":1
		},
		{
			"sampler":0,
			"source":2
		},
		{
			"sampler":0,
			"source":3
		},
		{
			"sampler":0,
			"source":4
		},
		{
			"sampler":0,
			"source":5
		}
	],
	"images":[
		{
			"mimeType":"image/png",
			"name":"grass_field2",
			"uri":"grass_field2.png"
		},
		{
			"mimeType":"image/png",
			"name":"item_factory",
			"uri":"item_factory.png"
		},
		{
			"mimeType":"image/png",
			"name":"upgrade_smith",
			"uri":"upgrade_smith.png"
		},
		{
			"mimeType":"image/png",
			"name":"vedal's_house",
			"uri":"vedals_house.png"
		},
		{
			"mimeType":"image/png",
			"name":"water_pump",
			"uri":"water_pump.png"
		},
		{
			"mimeType":"image/png",
			"name":"power_generator",
			"uri":"power_generator.png"
		}
	],
	"accessors":[
		{
			"bufferView":0,
			"componentType":5126,
			"count":16,
			"max":[
				22,
				-2.2999939918518066,
				-9.999999046325684
			],
			"min":[
				-10.000000953674316,
				-2.4999938011169434,
				-18
			],
			"type":"VEC3"
		},
		{
			"bufferView":1,
			"componentType":5126,
			"count":16,
			"type":"VEC3"
		},
		{
			"bufferView":2,
			"componentType":5126,
			"count":16,
			"type":"VEC2"
		},
		{
			"bufferView":3,
			"componentType":5123,
			"count":24,
			"type":"SCALAR"
		},
		{
			"bufferView":4,
			"componentType":5126,
			"count":27,
			"max":[
				4.999998569488525,
				-2.300009250640869,
				-18.000003814697266
			],
			"min":[
				-10,
				-2.500009059906006,
				-50.000003814697266
			],
			"type":"VEC3"
		},
		{
			"bufferView":5,
			"componentType":5126,
			"count":27,
			"type":"VEC3"
		},
		{
			"bufferView":6,
			"componentType":5126,
			"count":27,
			"type":"VEC2"
		},
		{
			"bufferView":7,
			"componentType":5123,
			"count":51,
			"type":"SCALAR"
		},
		{
			"bufferView":8,
			"componentType":5126,
			"count":136,
			"max":[
				50,
				-2.2999939918518066,
				50
			],
			"min":[
				14,
				-2.4999938011169434,
				-2
			],
			"type":"VEC3"
		},
		{
			"bufferView":9,
			"componentType":5126,
			"count":136,
			"type":"VEC3"
		},
		{
			"bufferView":10,
			"componentType":5126,
			"count":136,
			"type":"VEC2"
		},
		{
			"bufferView":11,
			"componentType":5123,
			"count":528,
			"type":"SCALAR"
		},
		{
			"bufferView":12,
			"componentType":5126,
			"count":627,
			"max":[
				4.999998092651367,
				-1.250009298324585,
				-19
			],
			"min":[
				-10,
				-2.30000901222229,
				-50
			],
			"type":"VEC3"
		},
		{
			"bufferView":13,
			"componentType":5126,
			"count":627,
			"type":"VEC3"
		},
		{
			"bufferView":14,
			"componentType":5126,
			"count":627,
			"type":"VEC2"
		},
		{
			"bufferView":15,
			"componentType":5123,
			"count":804,
			"type":"SCALAR"
		},
		{
			"bufferView":16,
			"componentType":5126,
			"count":852,
			"max":[
				50.00009536743164,
				-2.2999861240386963,
				-18.0000057220459
			],
			"min":[
				29.950092315673828,
				-2.4999964237213135,
				-50.000003814697266
			],
			"type":"VEC3"
		},
		{
			"bufferView":17,
			"componentType":5126,
			"count":852,
			"type":"VEC3"
		},
		{
			"bufferView":18,
			"componentType":5126,
			"count":852,
			"type":"VEC2"
		},
		{
			"bufferView":19,
			"componentType":5123,
			"count":1536,
			"type":"SCALAR"
		},
		{
			"bufferView":20,
			"componentType":5126,
			"count":107,
			"max":[
				50,
				-2.300001382827759,
				-1.9999008178710938
			],
			"min":[
				29.950000762939453,
				-2.5000016689300537,
				-17.999902725219727
			],
			"type":"VEC3"
		},
		{
			"bufferView":21,
			"componentType":5126,
			"count":107,
			"type":"VEC3"
		},
		{
			"bufferView":22,
			"componentType":5126,
			"count":107,
			"type":"VEC2"
		},
		{
			"bufferView":23,
			"componentType":5123,
			"count":246,
			"type":"SCALAR"
		},
		{
			"bufferView":24,
			"componentType":5126,
			"count":12,
			"max":[
				-17.999998092651367,
				-2.3000245094299316,
				49.99999237060547
			],
			"min":[
				-49.99999237060547,
				-2.5000243186950684,
				-9.999998092651367
			],
			"type":"VEC3"
		},
		{
			"bufferView":25,
			"componentType":5126,
			"count":12,
			"type":"VEC3"
		},
		{
			"bufferView":26,
			"componentType":5126,
			"count":12,
			"type":"VEC2"
		},
		{
			"bufferView":27,
			"componentType":5123,
			"count":18,
			"type":"SCALAR"
		},
		{
			"bufferView":28,
			"componentType":5126,
			"count":63,
			"max":[
				22.049999237060547,
				-2.249998092651367,
				-17.999996185302734
			],
			"min":[
				6,
				-2.499998092651367,
				-41.999996185302734
			],
			"type":"VEC3"
		},
		{
			"bufferView":29,
			"componentType":5126,
			"count":63,
			"type":"VEC3"
		},
		{
			"bufferView":30,
			"componentType":5126,
			"count":63,
			"type":"VEC2"
		},
		{
			"bufferView":31,
			"componentType":5123,
			"count":165,
			"type":"SCALAR"
		},
		{
			"bufferView":32,
			"componentType":5126,
			"count":43,
			"max":[
				22.049997329711914,
				-2.250001907348633,
				-34.000003814697266
			],
			"min":[
				6,
				-2.500001907348633,
				-50.000003814697266
			],
			"type":"VEC3"
		},
		{
			"bufferView":33,
			"componentType":5126,
			"count":43,
			"type":"VEC3"
		},
		{
			"bufferView":34,
			"componentType":5126,
			"count":43,
			"type":"VEC2"
		},
		{
			"bufferView":35,
			"componentType":5123,
			"count":99,
			"type":"SCALAR"
		}
	],
	"bufferViews":[
		{
			"buffer":0,
			"byteLength":192,
			"byteOffset":0,
			"target":34962
		},
		{
			"buffer":0,
			"byteLength":192,
			"byteOffset":192,
			"target":34962
		},
		{
			"buffer":0,
			"byteLength":128,
			"byteOffset":384,
			"target":34962
		},
		{
			"buffer":0,
			"byteLength":48,
			"byteOffset":512,
			"target":34963
		},
		{
			"buffer":0,
			"byteLength":324,
			"byteOffset":560,
			"target":34962
		},
		{
			"buffer":0,
			"byteLength":324,
			"byteOffset":884,
			"target":34962
		},
		{
			"buffer":0,
			"byteLength":216,
			"byteOffset":1208,
			"target":34962
		},
		{
			"buffer":0,
			"byteLength":102,
			"byteOffset":1424,
			"target":34963
		},
		{
			"buffer":0,
			"byteLength":1632,
			"byteOffset":1528,
			"target":34962
		},
		{
			"buffer":0,
			"byteLength":1632,
			"byteOffset":3160,
			"target":34962
		},
		{
			"buffer":0,
			"byteLength":1088,
			"byteOffset":4792,
			"target":34962
		},
		{
			"buffer":0,
			"byteLength":1056,
			"byteOffset":5880,
			"target":34963
		},
		{
			"buffer":0,
			"byteLength":7524,
			"byteOffset":6936,
			"target":34962
		},
		{
			"buffer":0,
			"byteLength":7524,
			"byteOffset":14460,
			"target":34962
		},
		{
			"buffer":0,
			"byteLength":5016,
			"byteOffset":21984,
			"target":34962
		},
		{
			"buffer":0,
			"byteLength":1608,
			"byteOffset":27000,
			"target":34963
		},
		{
			"buffer":0,
			"byteLength":10224,
			"byteOffset":28608,
			"target":34962
		},
		{
			"buffer":0,
			"byteLength":10224,
			"byteOffset":38832,
			"target":34962
		},
		{
			"buffer":0,
			"byteLength":6816,
			"byteOffset":49056,
			"target":34962
		},
		{
			"buffer":0,
			"byteLength":3072,
			"byteOffset":55872,
			"target":34963
		},
		{
			"buffer":0,
			"byteLength":1284,
			"byteOffset":58944,
			"target":34962
		},
		{
			"buffer":0,
			"byteLength":1284,
			"byteOffset":60228,
			"target":34962
		},
		{
			"buffer":0,
			"byteLength":856,
			"byteOffset":61512,
			"target":34962
		},
		{
			"buffer":0,
			"byteLength":492,
			"byteOffset":62368,
			"target":34963
		},
		{
			"buffer":0,
			"byteLength":144,
			"byteOffset":62860,
			"target":34962
		},
		{
			"buffer":0,
			"byteLength":144,
			"byteOffset":63004,
			"target":34962
		},
		{
			"buffer":0,
			"byteLength":96,
			"byteOffset":63148,
			"target":34962
		},
		{
			"buffer":0,
			"byteLength":36,
			"byteOffset":63244,
			"target":34963
		},
		{
			"buffer":0,
			"byteLength":756,
			"byteOffset":63280,
			"target":34962
		},
		{
			"buffer":0,
			"byteLength":756,
			"byteOffset":64036,
			"target":34962
		},
		{
			"buffer":0,
			"byteLength":504,
			"byteOffset":64792,
			"target":34962
		},
		{
			"buffer":0,
			"byteLength":330,
			"byteOffset":65296,
			"target":34963
		},
		{
			"buffer":0,
			"byteLength":516,
			"byteOffset":65628,
			"target":34962
		},
		{
			"buffer":0,
			"byteLength":516,
			"byteOffset":66144,
			"target":34962
		},
		{
			"buffer":0,
			"byteLength":344,
			"byteOffset":66660,
			"target":34962
		},
		{
			"buffer":0,
			"byteLength":198,
			"byteOffset":67004,
			"target":34963
		}
	],
	"samplers":[
		{
			"magFilter":9729,
			"minFilter":9987
		}
	],
	"buffers":[
		{
			"byteLength":67204,
			"uri":"floors.bin"
		}
	]
}
