{
	"asset":{
		"generator":"Khronos glTF Blender I/O v4.1.63",
		"version":"2.0"
	},
	"scene":0,
	"scenes":[
		{
			"name":"Scene",
			"nodes":[
				0,
				1,
				2,
				3,
				4,
				5,
				6,
				7
			]
		}
	],
	"nodes":[
		{
			"mesh":0,
			"name":"vedal's_house.001",
			"translation":[
				-36.14999008178711,
				225.59999084472656,
				26
			]
		},
		{
			"mesh":1,
			"name":"vedal's_house.002",
			"translation":[
				-36.14999008178711,
				225.59999084472656,
				26
			]
		},
		{
			"mesh":2,
			"name":"vedal's_house.003",
			"translation":[
				-36.14999008178711,
				225.59999084472656,
				26
			]
		},
		{
			"mesh":3,
			"name":"vedal's_house.004",
			"translation":[
				-36.14999008178711,
				225.59999084472656,
				26
			]
		},
		{
			"mesh":4,
			"name":"windows.001",
			"translation":[
				-36.14999008178711,
				225.59999084472656,
				26
			]
		},
		{
			"mesh":5,
			"name":"windows.002",
			"translation":[
				-36.14999008178711,
				225.59999084472656,
				26
			]
		},
		{
			"mesh":6,
			"name":"windows.003",
			"translation":[
				-36.14999008178711,
				225.59999084472656,
				26
			]
		},
		{
			"mesh":7,
			"name":"windows.004",
			"translation":[
				-36.14999008178711,
				225.59999084472656,
				26
			]
		}
	],
	"materials":[
		{
			"alphaMode":"BLEND",
			"name":"vedal's_house",
			"pbrMetallicRoughness":{
				"baseColorTexture":{
					"index":0
				},
				"metallicFactor":0,
				"roughnessFactor":0.5
			}
		}
	],
	"meshes":[
		{
			"name":"Plane.026",
			"primitives":[
				{
					"attributes":{
						"POSITION":0,
						"NORMAL":1,
						"TEXCOORD_0":2
					},
					"indices":3,
					"material":0
				}
			]
		},
		{
			"name":"Plane.027",
			"primitives":[
				{
					"attributes":{
						"POSITION":4,
						"NORMAL":5,
						"TEXCOORD_0":6
					},
					"indices":7,
					"material":0
				}
			]
		},
		{
			"name":"Plane.028",
			"primitives":[
				{
					"attributes":{
						"POSITION":8,
						"NORMAL":9,
						"TEXCOORD_0":10
					},
					"indices":11,
					"material":0
				}
			]
		},
		{
			"name":"Plane.029",
			"primitives":[
				{
					"attributes":{
						"POSITION":12,
						"NORMAL":13,
						"TEXCOORD_0":14
					},
					"indices":15,
					"material":0
				}
			]
		},
		{
			"name":"Plane.007",
			"primitives":[
				{
					"attributes":{
						"POSITION":16,
						"NORMAL":17,
						"TEXCOORD_0":18
					},
					"indices":19,
					"material":0
				}
			]
		},
		{
			"name":"Plane.030",
			"primitives":[
				{
					"attributes":{
						"POSITION":20,
						"NORMAL":21,
						"TEXCOORD_0":22
					},
					"indices":23,
					"material":0
				}
			]
		},
		{
			"name":"Plane.040",
			"primitives":[
				{
					"attributes":{
						"POSITION":24,
						"NORMAL":25,
						"TEXCOORD_0":26
					},
					"indices":27,
					"material":0
				}
			]
		},
		{
			"name":"Plane.041",
			"primitives":[
				{
					"attributes":{
						"POSITION":28,
						"NORMAL":29,
						"TEXCOORD_0":30
					},
					"indices":31,
					"material":0
				}
			]
		}
	],
	"textures":[
		{
			"sampler":0,
			"source":0
		}
	],
	"images":[
		{
			"mimeType":"image/png",
			"name":"vedals_house",
			"uri":"vedals_house.png"
		}
	],
	"accessors":[
		{
			"bufferView":0,
			"componentType":5126,
			"count":793,
			"max":[
				-1.8499984741210938,
				5.40000057220459,
				20
			],
			"min":[
				-9.849998474121094,
				-5.40000057220459,
				-20
			],
			"type":"VEC3"
		},
		{
			"bufferView":1,
			"componentType":5126,
			"count":793,
			"type":"VEC3"
		},
		{
			"bufferView":2,
			"componentType":5126,
			"count":793,
			"type":"VEC2"
		},
		{
			"bufferView":3,
			"componentType":5123,
			"count":1485,
			"type":"SCALAR"
		},
		{
			"bufferView":4,
			"componentType":5126,
			"count":463,
			"max":[
				2.150001049041748,
				5.400000095367432,
				7.999999046325684
			],
			"min":[
				-2.150001049041748,
				-5.400000095367432,
				-7.999999046325684
			],
			"type":"VEC3"
		},
		{
			"bufferView":5,
			"componentType":5126,
			"count":463,
			"type":"VEC3"
		},
		{
			"bufferView":6,
			"componentType":5126,
			"count":463,
			"type":"VEC2"
		},
		{
			"bufferView":7,
			"componentType":5123,
			"count":867,
			"type":"SCALAR"
		},
		{
			"bufferView":8,
			"componentType":5126,
			"count":634,
			"max":[
				10.150001525878906,
				5.400045871734619,
				20.000003814697266
			],
			"min":[
				-9.849998474121094,
				-5.399954319000244,
				12.000003814697266
			],
			"type":"VEC3"
		},
		{
			"bufferView":9,
			"componentType":5126,
			"count":634,
			"type":"VEC3"
		},
		{
			"bufferView":10,
			"componentType":5126,
			"count":634,
			"type":"VEC2"
		},
		{
			"bufferView":11,
			"componentType":5123,
			"count":1212,
			"type":"SCALAR"
		},
		{
			"bufferView":12,
			"componentType":5126,
			"count":652,
			"max":[
				10.14999771118164,
				5.400030612945557,
				-11.999998092651367
			],
			"min":[
				-9.85000228881836,
				-5.399969577789307,
				-20
			],
			"type":"VEC3"
		},
		{
			"bufferView":13,
			"componentType":5126,
			"count":652,
			"type":"VEC3"
		},
		{
			"bufferView":14,
			"componentType":5126,
			"count":652,
			"type":"VEC2"
		},
		{
			"bufferView":15,
			"componentType":5123,
			"count":1212,
			"type":"SCALAR"
		},
		{
			"bufferView":16,
			"componentType":5126,
			"count":80,
			"max":[
				9.849990844726562,
				4.999998092651367,
				-12.299999237060547
			],
			"min":[
				-9.450004577636719,
				-3.733335494995117,
				-19.700000762939453
			],
			"type":"VEC3"
		},
		{
			"bufferView":17,
			"componentType":5126,
			"count":80,
			"type":"VEC3"
		},
		{
			"bufferView":18,
			"componentType":5126,
			"count":80,
			"type":"VEC2"
		},
		{
			"bufferView":19,
			"componentType":5123,
			"count":120,
			"type":"SCALAR"
		},
		{
			"bufferView":20,
			"componentType":5126,
			"count":80,
			"max":[
				9.849990844726562,
				4.999998092651367,
				19.700000762939453
			],
			"min":[
				-9.450004577636719,
				-3.733335494995117,
				12.299999237060547
			],
			"type":"VEC3"
		},
		{
			"bufferView":21,
			"componentType":5126,
			"count":80,
			"type":"VEC3"
		},
		{
			"bufferView":22,
			"componentType":5126,
			"count":80,
			"type":"VEC2"
		},
		{
			"bufferView":23,
			"componentType":5123,
			"count":120,
			"type":"SCALAR"
		},
		{
			"bufferView":24,
			"componentType":5126,
			"count":96,
			"max":[
				-2.1500072479248047,
				4.999998092651367,
				19.599998474121094
			],
			"min":[
				-9.550004959106445,
				-3.733335494995117,
				-19.599998474121094
			],
			"type":"VEC3"
		},
		{
			"bufferView":25,
			"componentType":5126,
			"count":96,
			"type":"VEC3"
		},
		{
			"bufferView":26,
			"componentType":5126,
			"count":96,
			"type":"VEC2"
		},
		{
			"bufferView":27,
			"componentType":5123,
			"count":144,
			"type":"SCALAR"
		},
		{
			"bufferView":28,
			"componentType":5126,
			"count":52,
			"max":[
				1.8499910831451416,
				4.999999046325684,
				7.69999885559082
			],
			"min":[
				-1.450012445449829,
				-3.7333364486694336,
				-7.69999885559082
			],
			"type":"VEC3"
		},
		{
			"bufferView":29,
			"componentType":5126,
			"count":52,
			"type":"VEC3"
		},
		{
			"bufferView":30,
			"componentType":5126,
			"count":52,
			"type":"VEC2"
		},
		{
			"bufferView":31,
			"componentType":5123,
			"count":78,
			"type":"SCALAR"
		}
	],
	"bufferViews":[
		{
			"buffer":0,
			"byteLength":9516,
			"byteOffset":0,
			"target":34962
		},
		{
			"buffer":0,
			"byteLength":9516,
			"byteOffset":9516,
			"target":34962
		},
		{
			"buffer":0,
			"byteLength":6344,
			"byteOffset":19032,
			"target":34962
		},
		{
			"buffer":0,
			"byteLength":2970,
			"byteOffset":25376,
			"target":34963
		},
		{
			"buffer":0,
			"byteLength":5556,
			"byteOffset":28348,
			"target":34962
		},
		{
			"buffer":0,
			"byteLength":5556,
			"byteOffset":33904,
			"target":34962
		},
		{
			"buffer":0,
			"byteLength":3704,
			"byteOffset":39460,
			"target":34962
		},
		{
			"buffer":0,
			"byteLength":1734,
			"byteOffset":43164,
			"target":34963
		},
		{
			"buffer":0,
			"byteLength":7608,
			"byteOffset":44900,
			"target":34962
		},
		{
			"buffer":0,
			"byteLength":7608,
			"byteOffset":52508,
			"target":34962
		},
		{
			"buffer":0,
			"byteLength":5072,
			"byteOffset":60116,
			"target":34962
		},
		{
			"buffer":0,
			"byteLength":2424,
			"byteOffset":65188,
			"target":34963
		},
		{
			"buffer":0,
			"byteLength":7824,
			"byteOffset":67612,
			"target":34962
		},
		{
			"buffer":0,
			"byteLength":7824,
			"byteOffset":75436,
			"target":34962
		},
		{
			"buffer":0,
			"byteLength":5216,
			"byteOffset":83260,
			"target":34962
		},
		{
			"buffer":0,
			"byteLength":2424,
			"byteOffset":88476,
			"target":34963
		},
		{
			"buffer":0,
			"byteLength":960,
			"byteOffset":90900,
			"target":34962
		},
		{
			"buffer":0,
			"byteLength":960,
			"byteOffset":91860,
			"target":34962
		},
		{
			"buffer":0,
			"byteLength":640,
			"byteOffset":92820,
			"target":34962
		},
		{
			"buffer":0,
			"byteLength":240,
			"byteOffset":93460,
			"target":34963
		},
		{
			"buffer":0,
			"byteLength":960,
			"byteOffset":93700,
			"target":34962
		},
		{
			"buffer":0,
			"byteLength":960,
			"byteOffset":94660,
			"target":34962
		},
		{
			"buffer":0,
			"byteLength":640,
			"byteOffset":95620,
			"target":34962
		},
		{
			"buffer":0,
			"byteLength":240,
			"byteOffset":96260,
			"target":34963
		},
		{
			"buffer":0,
			"byteLength":1152,
			"byteOffset":96500,
			"target":34962
		},
		{
			"buffer":0,
			"byteLength":1152,
			"byteOffset":97652,
			"target":34962
		},
		{
			"buffer":0,
			"byteLength":768,
			"byteOffset":98804,
			"target":34962
		},
		{
			"buffer":0,
			"byteLength":288,
			"byteOffset":99572,
			"target":34963
		},
		{
			"buffer":0,
			"byteLength":624,
			"byteOffset":99860,
			"target":34962
		},
		{
			"buffer":0,
			"byteLength":624,
			"byteOffset":100484,
			"target":34962
		},
		{
			"buffer":0,
			"byteLength":416,
			"byteOffset":101108,
			"target":34962
		},
		{
			"buffer":0,
			"byteLength":156,
			"byteOffset":101524,
			"target":34963
		}
	],
	"samplers":[
		{
			"magFilter":9729,
			"minFilter":9987
		}
	],
	"buffers":[
		{
			"byteLength":101680,
			"uri":"vedals_house.bin"
		}
	]
}
