{
	"asset":{
		"generator":"Khronos glTF Blender I/O v4.3.47",
		"version":"2.0"
	},
	"scene":0,
	"scenes":[
		{
			"name":"Scene",
			"nodes":[
				0
			]
		}
	],
	"nodes":[
		{
			"mesh":0,
			"name":"Plane",
			"translation":[
				0,
				0,
				9.899993896484375
			]
		}
	],
	"materials":[
		{
			"name":"Material",
			"pbrMetallicRoughness":{
				"baseColorTexture":{
					"index":0
				},
				"metallicFactor":0,
				"roughnessFactor":0.5
			}
		}
	],
	"meshes":[
		{
			"name":"Plane",
			"primitives":[
				{
					"attributes":{
						"POSITION":0,
						"NORMAL":1,
						"TEXCOORD_0":2
					},
					"indices":3,
					"material":0
				}
			]
		}
	],
	"textures":[
		{
			"sampler":0,
			"source":0
		}
	],
	"images":[
		{
			"mimeType":"image/png",
			"name":"ground",
			"uri":"ground.png"
		}
	],
	"accessors":[
		{
			"bufferView":0,
			"componentType":5126,
			"count":10194,
			"max":[
				250,
				0,
				259.8999938964844
			],
			"min":[
				-250,
				0,
				-259.8999938964844
			],
			"type":"VEC3"
		},
		{
			"bufferView":1,
			"componentType":5126,
			"count":10194,
			"type":"VEC3"
		},
		{
			"bufferView":2,
			"componentType":5126,
			"count":10194,
			"type":"VEC2"
		},
		{
			"bufferView":3,
			"componentType":5123,
			"count":59670,
			"type":"SCALAR"
		}
	],
	"bufferViews":[
		{
			"buffer":0,
			"byteLength":122328,
			"byteOffset":0,
			"target":34962
		},
		{
			"buffer":0,
			"byteLength":122328,
			"byteOffset":122328,
			"target":34962
		},
		{
			"buffer":0,
			"byteLength":81552,
			"byteOffset":244656,
			"target":34962
		},
		{
			"buffer":0,
			"byteLength":119340,
			"byteOffset":326208,
			"target":34963
		}
	],
	"samplers":[
		{
			"magFilter":9729,
			"minFilter":9987
		}
	],
	"buffers":[
		{
			"byteLength":445548,
			"uri":"ground.bin"
		}
	]
}
