{
	"asset":{
		"generator":"Khronos glTF Blender I/O v4.1.63",
		"version":"2.0"
	},
	"scene":0,
	"scenes":[
		{
			"name":"Scene",
			"nodes":[
				0,
				1
			]
		}
	],
	"nodes":[
		{
			"mesh":0,
			"name":"grass field",
			"translation":[
				-8,
				225.54998779296875,
				40
			]
		},
		{
			"mesh":1,
			"name":"Camilla's_tent",
			"translation":[
				-8,
				225.54998779296875,
				40
			]
		}
	],
	"materials":[
		{
			"name":"Camilla's_tent",
			"pbrMetallicRoughness":{
				"baseColorTexture":{
					"index":0
				},
				"metallicFactor":0,
				"roughnessFactor":0.5
			}
		}
	],
	"meshes":[
		{
			"name":"Plane.013",
			"primitives":[
				{
					"attributes":{
						"POSITION":0,
						"NORMAL":1,
						"TEXCOORD_0":2
					},
					"indices":3,
					"material":0
				}
			]
		},
		{
			"name":"Plane.033",
			"primitives":[
				{
					"attributes":{
						"POSITION":4,
						"NORMAL":5,
						"TEXCOORD_0":6
					},
					"indices":7,
					"material":0
				}
			]
		}
	],
	"textures":[
		{
			"sampler":0,
			"source":0
		}
	],
	"images":[
		{
			"mimeType":"image/png",
			"name":"Camillas_tent",
			"uri":"Camillas_tent.png"
		}
	],
	"accessors":[
		{
			"bufferView":0,
			"componentType":5126,
			"count":685,
			"max":[
				14,
				-5.299988269805908,
				10
			],
			"min":[
				-10,
				-5.549987316131592,
				-10
			],
			"type":"VEC3"
		},
		{
			"bufferView":1,
			"componentType":5126,
			"count":685,
			"type":"VEC3"
		},
		{
			"bufferView":2,
			"componentType":5126,
			"count":685,
			"type":"VEC2"
		},
		{
			"bufferView":3,
			"componentType":5123,
			"count":1362,
			"type":"SCALAR"
		},
		{
			"bufferView":4,
			"componentType":5126,
			"count":902,
			"max":[
				9,
				5.349999904632568,
				9
			],
			"min":[
				-9,
				-5.34999942779541,
				-9
			],
			"type":"VEC3"
		},
		{
			"bufferView":5,
			"componentType":5126,
			"count":902,
			"type":"VEC3"
		},
		{
			"bufferView":6,
			"componentType":5126,
			"count":902,
			"type":"VEC2"
		},
		{
			"bufferView":7,
			"componentType":5123,
			"count":1182,
			"type":"SCALAR"
		}
	],
	"bufferViews":[
		{
			"buffer":0,
			"byteLength":8220,
			"byteOffset":0,
			"target":34962
		},
		{
			"buffer":0,
			"byteLength":8220,
			"byteOffset":8220,
			"target":34962
		},
		{
			"buffer":0,
			"byteLength":5480,
			"byteOffset":16440,
			"target":34962
		},
		{
			"buffer":0,
			"byteLength":2724,
			"byteOffset":21920,
			"target":34963
		},
		{
			"buffer":0,
			"byteLength":10824,
			"byteOffset":24644,
			"target":34962
		},
		{
			"buffer":0,
			"byteLength":10824,
			"byteOffset":35468,
			"target":34962
		},
		{
			"buffer":0,
			"byteLength":7216,
			"byteOffset":46292,
			"target":34962
		},
		{
			"buffer":0,
			"byteLength":2364,
			"byteOffset":53508,
			"target":34963
		}
	],
	"samplers":[
		{
			"magFilter":9729,
			"minFilter":9987
		}
	],
	"buffers":[
		{
			"byteLength":55872,
			"uri":"Camillas_tent.bin"
		}
	]
}
