{
	"asset":{
		"generator":"Khronos glTF Blender I/O v4.1.63",
		"version":"2.0"
	},
	"scene":0,
	"scenes":[
		{
			"name":"Scene",
			"nodes":[
				0,
				1
			]
		}
	],
	"nodes":[
		{
			"mesh":0,
			"name":"beacon",
			"translation":[
				2.000000476837158,
				271.1000061035156,
				4.000001430511475
			]
		},
		{
			"mesh":1,
			"name":"world_center_building",
			"translation":[
				2.000000476837158,
				271.1000061035156,
				4.000001430511475
			]
		}
	],
	"materials":[
		{
			"name":"beacon",
			"pbrMetallicRoughness":{
				"baseColorTexture":{
					"index":0
				},
				"metallicFactor":0,
				"roughnessFactor":0.5
			}
		},
		{
			"name":"world_center_building",
			"pbrMetallicRoughness":{
				"baseColorTexture":{
					"index":1
				},
				"metallicFactor":0,
				"roughnessFactor":0.5
			}
		}
	],
	"meshes":[
		{
			"name":"Plane.011",
			"primitives":[
				{
					"attributes":{
						"POSITION":0,
						"NORMAL":1,
						"TEXCOORD_0":2
					},
					"indices":3,
					"material":0
				}
			]
		},
		{
			"name":"Plane.012",
			"primitives":[
				{
					"attributes":{
						"POSITION":4,
						"NORMAL":5,
						"TEXCOORD_0":6
					},
					"indices":7,
					"material":1
				}
			]
		}
	],
	"textures":[
		{
			"sampler":0,
			"source":0
		},
		{
			"sampler":0,
			"source":1
		}
	],
	"images":[
		{
			"mimeType":"image/png",
			"name":"beacon",
			"uri":"world_center/beacon.png"
		},
		{
			"mimeType":"image/png",
			"name":"world_center_building",
			"uri":"world_center/world_center_building.png"
		}
	],
	"accessors":[
		{
			"bufferView":0,
			"componentType":5126,
			"count":472,
			"max":[
				12,
				51.099998474121094,
				6
			],
			"min":[
				-12,
				-51.099998474121094,
				-6
			],
			"type":"VEC3"
		},
		{
			"bufferView":1,
			"componentType":5126,
			"count":472,
			"type":"VEC3"
		},
		{
			"bufferView":2,
			"componentType":5126,
			"count":472,
			"type":"VEC2"
		},
		{
			"bufferView":3,
			"componentType":5123,
			"count":1206,
			"type":"SCALAR"
		},
		{
			"bufferView":4,
			"componentType":5126,
			"count":288,
			"max":[
				24.000001907348633,
				-45.90001678466797,
				17.999998092651367
			],
			"min":[
				-11.999998092651367,
				-51.100013732910156,
				-6.000001430511475
			],
			"type":"VEC3"
		},
		{
			"bufferView":5,
			"componentType":5126,
			"count":288,
			"type":"VEC3"
		},
		{
			"bufferView":6,
			"componentType":5126,
			"count":288,
			"type":"VEC2"
		},
		{
			"bufferView":7,
			"componentType":5123,
			"count":900,
			"type":"SCALAR"
		}
	],
	"bufferViews":[
		{
			"buffer":0,
			"byteLength":5664,
			"byteOffset":0,
			"target":34962
		},
		{
			"buffer":0,
			"byteLength":5664,
			"byteOffset":5664,
			"target":34962
		},
		{
			"buffer":0,
			"byteLength":3776,
			"byteOffset":11328,
			"target":34962
		},
		{
			"buffer":0,
			"byteLength":2412,
			"byteOffset":15104,
			"target":34963
		},
		{
			"buffer":0,
			"byteLength":3456,
			"byteOffset":17516,
			"target":34962
		},
		{
			"buffer":0,
			"byteLength":3456,
			"byteOffset":20972,
			"target":34962
		},
		{
			"buffer":0,
			"byteLength":2304,
			"byteOffset":24428,
			"target":34962
		},
		{
			"buffer":0,
			"byteLength":1800,
			"byteOffset":26732,
			"target":34963
		}
	],
	"samplers":[
		{
			"magFilter":9729,
			"minFilter":9987
		}
	],
	"buffers":[
		{
			"byteLength":28532,
			"uri":"world_center.bin"
		}
	]
}
