{
	"asset":{
		"generator":"Khronos glTF Blender I/O v4.1.63",
		"version":"2.0"
	},
	"scene":0,
	"scenes":[
		{
			"name":"Scene",
			"nodes":[
				0,
				1,
				2,
				3,
				4,
				5,
				6,
				7
			]
		}
	],
	"nodes":[
		{
			"mesh":0,
			"name":"wall2",
			"translation":[
				0,
				222.5,
				0
			]
		},
		{
			"mesh":1,
			"name":"wall4",
			"translation":[
				0,
				222.5,
				0
			]
		},
		{
			"mesh":2,
			"name":"wall6",
			"translation":[
				0,
				222.5,
				0
			]
		},
		{
			"mesh":3,
			"name":"wall1",
			"translation":[
				0,
				222.5,
				0
			]
		},
		{
			"mesh":4,
			"name":"wall3",
			"translation":[
				0,
				222.5,
				0
			]
		},
		{
			"mesh":5,
			"name":"wall5",
			"translation":[
				0,
				222.5,
				0
			]
		},
		{
			"mesh":6,
			"name":"wall7",
			"translation":[
				0,
				222.5,
				0
			]
		},
		{
			"mesh":7,
			"name":"wall8",
			"translation":[
				0,
				222.5,
				0
			]
		}
	],
	"materials":[
		{
			"name":"walls",
			"pbrMetallicRoughness":{
				"baseColorTexture":{
					"index":0
				},
				"metallicFactor":0,
				"roughnessFactor":0.5
			}
		}
	],
	"meshes":[
		{
			"name":"Plane.024",
			"primitives":[
				{
					"attributes":{
						"POSITION":0,
						"NORMAL":1,
						"TEXCOORD_0":2
					},
					"indices":3,
					"material":0
				}
			]
		},
		{
			"name":"Plane.025",
			"primitives":[
				{
					"attributes":{
						"POSITION":4,
						"NORMAL":5,
						"TEXCOORD_0":6
					},
					"indices":7,
					"material":0
				}
			]
		},
		{
			"name":"Plane",
			"primitives":[
				{
					"attributes":{
						"POSITION":8,
						"NORMAL":9,
						"TEXCOORD_0":10
					},
					"indices":11,
					"material":0
				}
			]
		},
		{
			"name":"Plane.034",
			"primitives":[
				{
					"attributes":{
						"POSITION":12,
						"NORMAL":13,
						"TEXCOORD_0":14
					},
					"indices":15,
					"material":0
				}
			]
		},
		{
			"name":"Plane.035",
			"primitives":[
				{
					"attributes":{
						"POSITION":16,
						"NORMAL":17,
						"TEXCOORD_0":18
					},
					"indices":19,
					"material":0
				}
			]
		},
		{
			"name":"Plane.036",
			"primitives":[
				{
					"attributes":{
						"POSITION":20,
						"NORMAL":21,
						"TEXCOORD_0":22
					},
					"indices":23,
					"material":0
				}
			]
		},
		{
			"name":"Plane.037",
			"primitives":[
				{
					"attributes":{
						"POSITION":24,
						"NORMAL":25,
						"TEXCOORD_0":26
					},
					"indices":27,
					"material":0
				}
			]
		},
		{
			"name":"Plane.038",
			"primitives":[
				{
					"attributes":{
						"POSITION":28,
						"NORMAL":29,
						"TEXCOORD_0":30
					},
					"indices":31,
					"material":0
				}
			]
		}
	],
	"textures":[
		{
			"sampler":0,
			"source":0
		}
	],
	"images":[
		{
			"mimeType":"image/png",
			"name":"walls",
			"uri":"walls.png"
		}
	],
	"accessors":[
		{
			"bufferView":0,
			"componentType":5126,
			"count":8,
			"max":[
				6,
				2.5,
				51
			],
			"min":[
				-50.999996185302734,
				-2.5,
				50
			],
			"type":"VEC3"
		},
		{
			"bufferView":1,
			"componentType":5126,
			"count":8,
			"type":"VEC3"
		},
		{
			"bufferView":2,
			"componentType":5126,
			"count":8,
			"type":"VEC2"
		},
		{
			"bufferView":3,
			"componentType":5123,
			"count":24,
			"type":"SCALAR"
		},
		{
			"bufferView":4,
			"componentType":5126,
			"count":8,
			"max":[
				6,
				2.499969720840454,
				-18.000001907348633
			],
			"min":[
				5,
				-2.500030755996704,
				-51
			],
			"type":"VEC3"
		},
		{
			"bufferView":5,
			"componentType":5126,
			"count":8,
			"type":"VEC3"
		},
		{
			"bufferView":6,
			"componentType":5126,
			"count":8,
			"type":"VEC2"
		},
		{
			"bufferView":7,
			"componentType":5123,
			"count":18,
			"type":"SCALAR"
		},
		{
			"bufferView":8,
			"componentType":5126,
			"count":10,
			"max":[
				51,
				2.5,
				50.99999237060547
			],
			"min":[
				14,
				-2.5,
				49.99999237060547
			],
			"type":"VEC3"
		},
		{
			"bufferView":9,
			"componentType":5126,
			"count":10,
			"type":"VEC3"
		},
		{
			"bufferView":10,
			"componentType":5126,
			"count":10,
			"type":"VEC2"
		},
		{
			"bufferView":11,
			"componentType":5123,
			"count":24,
			"type":"SCALAR"
		},
		{
			"bufferView":12,
			"componentType":5126,
			"count":9,
			"max":[
				-50,
				2.499969482421875,
				51
			],
			"min":[
				-51,
				-2.500030517578125,
				6
			],
			"type":"VEC3"
		},
		{
			"bufferView":13,
			"componentType":5126,
			"count":9,
			"type":"VEC3"
		},
		{
			"bufferView":14,
			"componentType":5126,
			"count":9,
			"type":"VEC2"
		},
		{
			"bufferView":15,
			"componentType":5123,
			"count":24,
			"type":"SCALAR"
		},
		{
			"bufferView":16,
			"componentType":5126,
			"count":16,
			"max":[
				6,
				2.500000238418579,
				-18.000001907348633
			],
			"min":[
				-10,
				-2.500000238418579,
				-19.000001907348633
			],
			"type":"VEC3"
		},
		{
			"bufferView":17,
			"componentType":5126,
			"count":16,
			"type":"VEC3"
		},
		{
			"bufferView":18,
			"componentType":5126,
			"count":16,
			"type":"VEC2"
		},
		{
			"bufferView":19,
			"componentType":5123,
			"count":66,
			"type":"SCALAR"
		},
		{
			"bufferView":20,
			"componentType":5126,
			"count":10,
			"max":[
				22,
				2.500000238418579,
				-50
			],
			"min":[
				5,
				-2.500000238418579,
				-51
			],
			"type":"VEC3"
		},
		{
			"bufferView":21,
			"componentType":5126,
			"count":10,
			"type":"VEC3"
		},
		{
			"bufferView":22,
			"componentType":5126,
			"count":10,
			"type":"VEC2"
		},
		{
			"bufferView":23,
			"componentType":5123,
			"count":24,
			"type":"SCALAR"
		},
		{
			"bufferView":24,
			"componentType":5126,
			"count":10,
			"max":[
				51,
				2.499969482421875,
				50.99999237060547
			],
			"min":[
				50,
				-2.500030517578125,
				-51.00000762939453
			],
			"type":"VEC3"
		},
		{
			"bufferView":25,
			"componentType":5126,
			"count":10,
			"type":"VEC3"
		},
		{
			"bufferView":26,
			"componentType":5126,
			"count":10,
			"type":"VEC2"
		},
		{
			"bufferView":27,
			"componentType":5123,
			"count":18,
			"type":"SCALAR"
		},
		{
			"bufferView":28,
			"componentType":5126,
			"count":10,
			"max":[
				51,
				2.500030517578125,
				-50.00000762939453
			],
			"min":[
				30,
				-2.499969482421875,
				-51.00000762939453
			],
			"type":"VEC3"
		},
		{
			"bufferView":29,
			"componentType":5126,
			"count":10,
			"type":"VEC3"
		},
		{
			"bufferView":30,
			"componentType":5126,
			"count":10,
			"type":"VEC2"
		},
		{
			"bufferView":31,
			"componentType":5123,
			"count":24,
			"type":"SCALAR"
		}
	],
	"bufferViews":[
		{
			"buffer":0,
			"byteLength":96,
			"byteOffset":0,
			"target":34962
		},
		{
			"buffer":0,
			"byteLength":96,
			"byteOffset":96,
			"target":34962
		},
		{
			"buffer":0,
			"byteLength":64,
			"byteOffset":192,
			"target":34962
		},
		{
			"buffer":0,
			"byteLength":48,
			"byteOffset":256,
			"target":34963
		},
		{
			"buffer":0,
			"byteLength":96,
			"byteOffset":304,
			"target":34962
		},
		{
			"buffer":0,
			"byteLength":96,
			"byteOffset":400,
			"target":34962
		},
		{
			"buffer":0,
			"byteLength":64,
			"byteOffset":496,
			"target":34962
		},
		{
			"buffer":0,
			"byteLength":36,
			"byteOffset":560,
			"target":34963
		},
		{
			"buffer":0,
			"byteLength":120,
			"byteOffset":596,
			"target":34962
		},
		{
			"buffer":0,
			"byteLength":120,
			"byteOffset":716,
			"target":34962
		},
		{
			"buffer":0,
			"byteLength":80,
			"byteOffset":836,
			"target":34962
		},
		{
			"buffer":0,
			"byteLength":48,
			"byteOffset":916,
			"target":34963
		},
		{
			"buffer":0,
			"byteLength":108,
			"byteOffset":964,
			"target":34962
		},
		{
			"buffer":0,
			"byteLength":108,
			"byteOffset":1072,
			"target":34962
		},
		{
			"buffer":0,
			"byteLength":72,
			"byteOffset":1180,
			"target":34962
		},
		{
			"buffer":0,
			"byteLength":48,
			"byteOffset":1252,
			"target":34963
		},
		{
			"buffer":0,
			"byteLength":192,
			"byteOffset":1300,
			"target":34962
		},
		{
			"buffer":0,
			"byteLength":192,
			"byteOffset":1492,
			"target":34962
		},
		{
			"buffer":0,
			"byteLength":128,
			"byteOffset":1684,
			"target":34962
		},
		{
			"buffer":0,
			"byteLength":132,
			"byteOffset":1812,
			"target":34963
		},
		{
			"buffer":0,
			"byteLength":120,
			"byteOffset":1944,
			"target":34962
		},
		{
			"buffer":0,
			"byteLength":120,
			"byteOffset":2064,
			"target":34962
		},
		{
			"buffer":0,
			"byteLength":80,
			"byteOffset":2184,
			"target":34962
		},
		{
			"buffer":0,
			"byteLength":48,
			"byteOffset":2264,
			"target":34963
		},
		{
			"buffer":0,
			"byteLength":120,
			"byteOffset":2312,
			"target":34962
		},
		{
			"buffer":0,
			"byteLength":120,
			"byteOffset":2432,
			"target":34962
		},
		{
			"buffer":0,
			"byteLength":80,
			"byteOffset":2552,
			"target":34962
		},
		{
			"buffer":0,
			"byteLength":36,
			"byteOffset":2632,
			"target":34963
		},
		{
			"buffer":0,
			"byteLength":120,
			"byteOffset":2668,
			"target":34962
		},
		{
			"buffer":0,
			"byteLength":120,
			"byteOffset":2788,
			"target":34962
		},
		{
			"buffer":0,
			"byteLength":80,
			"byteOffset":2908,
			"target":34962
		},
		{
			"buffer":0,
			"byteLength":48,
			"byteOffset":2988,
			"target":34963
		}
	],
	"samplers":[
		{
			"magFilter":9729,
			"minFilter":9987
		}
	],
	"buffers":[
		{
			"byteLength":3036,
			"uri":"walls.bin"
		}
	]
}
